<svg xmlns:xlink="http://www.w3.org/1999/xlink" width="10" height="9" viewBox="0 0 10 9" fill="none" xmlns="http://www.w3.org/2000/svg" class="Filter_checkboxIcon__qeiLW Filter_checkboxActive__Ha1WG"><title fill="none">Checkbox icon</title><path fill-rule="evenodd" clip-rule="evenodd" d="M1 1L-3.49691e-07 1L-4.37113e-08 8L1 8L1 9L9 9L9 8L10 8L10 1L9 1L9 -3.93402e-07L1 -4.37114e-08L1 1ZM1 1L9 1L9 8L1 8L1 1ZM7 2L8 2L8 3L7 3L7 2ZM6 4L6 3L7 3L7 4L6 4ZM5 5L5 4L6 4L6 5L5 5ZM4 6L4 5L5 5L5 6L4 6ZM3 6L4 6L4 7L3 7L3 6ZM3 6L2 6L2 5L3 5L3 6Z" fill="#1E1E1E" fill-opacity="0.267"></path></svg>